<svg xmlns="http://www.w3.org/2000/svg" xmlns:xlink="http://www.w3.org/1999/xlink" width="1920" height="3400" viewBox="0 0 1920 3400">
  <defs>
    <clipPath id="clip-Home">
      <rect width="1920" height="3400"/>
    </clipPath>
  </defs>
  <g id="Home" clip-path="url(#clip-Home)">
    <rect width="1920" height="3400" fill="#fff"/>
    <g id="FOOTER" transform="translate(0 -5501)" style="isolation: isolate">
      <rect id="background" width="1920" height="81" transform="translate(0 8820)" fill="#2baaec"/>
      <text id="_2020_DentialClinic" data-name="© 2020 DentialClinic" transform="translate(960 8867)" fill="#f3fbff" font-size="16" font-family="Roboto-Regular, Roboto" opacity="0.6"><tspan x="-72.594" y="0">© 2020 DentialClinic</tspan></text>
      <line id="line_bottom_2" data-name="line bottom 2" x2="1410" transform="translate(255.5 8820)" fill="none" stroke="#fff" stroke-width="1" opacity="0.6"/>
    </g>
    <g id="CTA">
      <rect id="placehold" width="1920" height="220" transform="translate(0 3100)" fill="#dedede"/>
      <rect id="overlay" width="1920" height="220" transform="translate(0 3100)" fill="#2baaec" opacity="0.8"/>
      <g id="Button" transform="translate(1380 3180)">
        <rect id="btn" width="285" height="60" rx="10" fill="#fff"/>
        <text id="Book_an_appointment" data-name="Book an appointment" transform="translate(56 37)" fill="#2baaec" font-size="18" font-family="Roboto-Bold, Roboto" font-weight="700"><tspan x="0" y="0">Book an appointment</tspan></text>
      </g>
      <text id="Do_not_wait_and_make_an_appointment_today_" data-name="Do not wait and make an appointment today!" transform="translate(255 3222)" fill="#fff" font-size="30" font-family="RobotoSlab-Regular, Roboto Slab"><tspan x="0" y="0">Do not wait and make an appointment today!</tspan></text>
    </g>
    <g id="SERVICES">
      <rect id="background-2" data-name="background" width="1920" height="1349" transform="translate(0 1751)" fill="#f7f7f7"/>
      <g id="Box_service_6" data-name="Box service 6" transform="translate(1215 2514)">
        <rect id="box_background" data-name="box background" width="450" height="436" rx="10" fill="#fff"/>
        <text id="Effective_protection" data-name="Effective protection" transform="translate(225 260)" fill="#363636" font-size="22" font-family="RobotoSlab-Regular, Roboto Slab"><tspan x="-102.851" y="0">Effective protection</tspan></text>
        <text id="The_cheapest_tooth_protection_is_their_cleaning_and_a_regular_visit_to_the_dentist." data-name="The cheapest tooth protection
is their cleaning and a regular
visit to the dentist." transform="translate(50 286)" fill="#626262" font-size="18" font-family="Roboto-Regular, Roboto"><tspan x="54.695" y="19">The cheapest tooth protection</tspan><tspan x="57.635" y="47">is their cleaning and a regular</tspan><tspan x="101.475" y="75">visit to the dentist.</tspan></text>
        <circle id="icon_background" data-name="icon background" cx="60" cy="60" r="60" transform="translate(165 70)" fill="#25e6c8"/>
        <g id="Group_57" data-name="Group 57" transform="translate(-195.945 -167.64)">
          <g id="Group_36" data-name="Group 36">
            <g id="Group_35" data-name="Group 35">
              <path id="Path_30" data-name="Path 30" d="M444.945,274.641h-3.6a32.388,32.388,0,0,1-19.786-6.79,1,1,0,0,0-1.229,0,32.383,32.383,0,0,1-19.785,6.79h-3.6a1,1,0,0,0-1,1v10.7a46.782,46.782,0,0,0,24.523,41.18,1,1,0,0,0,.954,0,46.783,46.783,0,0,0,24.523-41.175v-10.7A1,1,0,0,0,444.945,274.641Zm-1,11.7a44.786,44.786,0,0,1-23,39.16,44.782,44.782,0,0,1-23-39.155v-9.7h2.6a34.394,34.394,0,0,0,20.4-6.744,34.394,34.394,0,0,0,20.4,6.744h2.6v9.7Z" fill="#fff"/>
            </g>
          </g>
          <g id="Group_38" data-name="Group 38">
            <g id="Group_37" data-name="Group 37">
              <path id="Path_31" data-name="Path 31" d="M429.64,277.645a9.3,9.3,0,0,0-3.653.75,12.856,12.856,0,0,1-10.083,0,9.3,9.3,0,0,0-12.959,8.545,16.764,16.764,0,0,0,1.762,7.463l2.281,4.562,2.528,13.475a3.919,3.919,0,0,0,7.741-.237l1.308-10.463a2.4,2.4,0,0,1,4.761,0l1.307,10.465a3.918,3.918,0,0,0,7.74.239l2.53-13.483,2.28-4.561a16.8,16.8,0,0,0,1.763-7.46A9.3,9.3,0,0,0,429.64,277.645Zm5.754,15.861v0L433.05,298.2a.933.933,0,0,0-.087.261l-2.553,13.621a1.919,1.919,0,0,1-3.792-.118l-1.309-10.467a4.4,4.4,0,0,0-8.729,0l-1.308,10.464a1.919,1.919,0,0,1-3.791.118l-2.554-13.621a1.014,1.014,0,0,0-.087-.261l-2.344-4.688a14.758,14.758,0,0,1-1.551-6.565,7.3,7.3,0,0,1,10.172-6.711,14.846,14.846,0,0,0,11.656,0,7.3,7.3,0,0,1,10.172,6.711A14.746,14.746,0,0,1,435.394,293.506Z" fill="#fff"/>
            </g>
          </g>
          <g id="Group_40" data-name="Group 40">
            <g id="Group_39" data-name="Group 39">
              <path id="Path_32" data-name="Path 32" d="M410.39,281.809a7.719,7.719,0,0,0-3.445,6.437v1.395h2v-1.395a5.725,5.725,0,0,1,2.554-4.773Z" fill="#fff"/>
            </g>
          </g>
          <g id="Group_42" data-name="Group 42">
            <g id="Group_41" data-name="Group 41">
              <rect id="Rectangle_8" data-name="Rectangle 8" width="2" height="1.999" transform="translate(419.945 274.641)" fill="#fff"/>
            </g>
          </g>
          <g id="Group_44" data-name="Group 44">
            <g id="Group_43" data-name="Group 43">
              <rect id="Rectangle_9" data-name="Rectangle 9" width="2" height="2" transform="translate(439.945 278.641)" fill="#fff"/>
            </g>
          </g>
          <g id="Group_46" data-name="Group 46">
            <g id="Group_45" data-name="Group 45">
              <rect id="Rectangle_10" data-name="Rectangle 10" width="2" height="2" transform="translate(399.945 278.641)" fill="#fff"/>
            </g>
          </g>
          <g id="Group_48" data-name="Group 48">
            <g id="Group_47" data-name="Group 47">
              <rect id="Rectangle_11" data-name="Rectangle 11" width="2" height="2.001" transform="translate(435.945 304.64)" fill="#fff"/>
            </g>
          </g>
          <g id="Group_50" data-name="Group 50">
            <g id="Group_49" data-name="Group 49">
              <rect id="Rectangle_12" data-name="Rectangle 12" width="2" height="2" transform="translate(400.945 292.641)" fill="#fff"/>
            </g>
          </g>
          <g id="Group_52" data-name="Group 52">
            <g id="Group_51" data-name="Group 51">
              <rect id="Rectangle_13" data-name="Rectangle 13" width="2" height="2" transform="translate(419.945 319.641)" fill="#fff"/>
            </g>
          </g>
          <g id="Group_54" data-name="Group 54">
            <g id="Group_53" data-name="Group 53">
              <rect id="Rectangle_14" data-name="Rectangle 14" width="2" height="2" transform="translate(438.945 292.641)" fill="#fff"/>
            </g>
          </g>
          <g id="Group_56" data-name="Group 56">
            <g id="Group_55" data-name="Group 55">
              <rect id="Rectangle_15" data-name="Rectangle 15" width="2" height="2.001" transform="translate(403.945 304.64)" fill="#fff"/>
            </g>
          </g>
        </g>
      </g>
      <g id="Box_service_5" data-name="Box service 5" transform="translate(735 2514)">
        <rect id="box_background-2" data-name="box background" width="450" height="436" rx="10" fill="#fff"/>
        <text id="Dental_implants" data-name="Dental implants" transform="translate(225 260)" fill="#363636" font-size="22" font-family="RobotoSlab-Regular, Roboto Slab"><tspan x="-83.751" y="0">Dental implants</tspan></text>
        <text id="The_best_solution_when_you_can_not_save_a_healthy_tooth_and_you_need_to_apply_artificial_solutions." data-name="The best solution when you can not save
a healthy tooth and you need to apply artificial solutions." transform="translate(50 286)" fill="#626262" font-size="18" font-family="Roboto-Regular, Roboto"><tspan x="12.754" y="19">The best solution when you can not save</tspan><tspan x="26.245" y="47">a healthy tooth and you need to apply </tspan><tspan x="101.378" y="75">artificial solutions.</tspan></text>
        <circle id="icon_background-2" data-name="icon background" cx="60" cy="60" r="60" transform="translate(165 70)" fill="#25e6c8"/>
        <g id="Group_34" data-name="Group 34" transform="translate(-195.945 -167.641)">
          <g id="Group_31" data-name="Group 31">
            <g id="Group_30" data-name="Group 30">
              <path id="Path_28" data-name="Path 28" d="M429.645,267.641a9.241,9.241,0,0,0-3.662.751,12.845,12.845,0,0,1-10.082,0,9.3,9.3,0,0,0-12.956,8.548,25.27,25.27,0,0,0,2.616,11.171l1.425,4.816a1,1,0,0,0,.959.713h3v5a1,1,0,0,0,1,1h3v2.327l-2.89-.321-.22,1.988,3.11.346v3.987l-2.89-.321-.22,1.988,3.11.346v3.987l-2.89-.321-.22,1.988,3.11.346v3.987l-2.89-.321-.22,1.988,3.177.354v.023l2,5a1,1,0,0,0,.933.629h6a1,1,0,0,0,.928-.629l1.5-3.761,3.457.384.221-1.988-3.106-.346v-3.987l2.889.321.221-1.988-3.11-.346v-3.987l2.889.321.221-1.988-3.11-.346v-3.987l2.889.321.221-1.988-3.11-.346v-3.66h3a1,1,0,0,0,1-1v-5h3a1,1,0,0,0,.959-.716l1.425-4.816a25.3,25.3,0,0,0,2.616-11.168A9.306,9.306,0,0,0,429.645,267.641Zm-6.38,58h-4.643l-1.361-3.4,7.055.784Zm1.68-4.561-8-.89V316.2l8,.888Zm0-6-8-.89V310.2l8,.888Zm0-6-8-.89V304.2l8,.888Zm0-6-8-.89V299.64h8Zm4-5.439h-16v-4h16Zm5.554-10.347a1.194,1.194,0,0,0-.063.163l-1.238,4.185H408.692l-1.238-4.185a1.084,1.084,0,0,0-.064-.163,23.249,23.249,0,0,1-2.445-10.353,7.3,7.3,0,0,1,10.171-6.71,14.857,14.857,0,0,0,11.657,0,7.3,7.3,0,0,1,10.172,6.71A23.263,23.263,0,0,1,434.5,287.293Z" fill="#fff"/>
            </g>
          </g>
          <g id="Group_33" data-name="Group 33">
            <g id="Group_32" data-name="Group 32">
              <path id="Path_29" data-name="Path 29" d="M410.445,271.772a6.584,6.584,0,0,0-3.5,5.673v1.2h2v-1.2a4.611,4.611,0,0,1,2.5-3.937Z" fill="#fff"/>
            </g>
          </g>
        </g>
      </g>
      <g id="Box_service_4" data-name="Box service 4" transform="translate(255 2514)">
        <rect id="box_background-3" data-name="box background" width="450" height="436" rx="10" fill="#fff"/>
        <text id="Polishing_and_cleaning" data-name="Polishing and cleaning" transform="translate(225 260)" fill="#363636" font-size="22" font-family="RobotoSlab-Regular, Roboto Slab"><tspan x="-120.098" y="0">Polishing and cleaning</tspan></text>
        <text id="A_simple_and_safe_polishing_treatment_improves_the_health_of_teeth_that_will_get_a_better_look." data-name="A simple and safe polishing treatment improves the health of teeth that
will get a better look." transform="translate(50 286)" fill="#626262" font-size="18" font-family="Roboto-Regular, Roboto"><tspan x="23.411" y="19">A simple and safe polishing treatment </tspan><tspan x="45.216" y="47">improves the health of teeth that</tspan><tspan x="92.229" y="75">will get a better look.</tspan></text>
        <circle id="icon_background-3" data-name="icon background" cx="60" cy="60" r="60" transform="translate(165 70)" fill="#25e6c8"/>
        <g id="Group_29" data-name="Group 29" transform="translate(-195.945 -167.64)">
          <g id="Group_18" data-name="Group 18">
            <g id="Group_17" data-name="Group 17">
              <path id="Path_22" data-name="Path 22" d="M410.39,286.608a7.769,7.769,0,0,0-3.445,6.469v1.4h2v-1.4a5.76,5.76,0,0,1,2.555-4.8Z" fill="#fff"/>
            </g>
          </g>
          <g id="Group_20" data-name="Group 20">
            <g id="Group_19" data-name="Group 19">
              <path id="Path_23" data-name="Path 23" d="M449.238,271.66l-17.293,17.378-2.586-2.6,17.293-17.378-1.414-1.421L427.4,285.561l-11.776,3.944a1.007,1.007,0,0,0-.633,1.271,1,1,0,0,0,.242.393l12,12.059a1,1,0,0,0,1.414,0,1.007,1.007,0,0,0,.241-.392L432.819,291l17.833-17.922Zm-21.731,29-2.275-2.288,3.545-5.343-1.664-1.116-3.324,5.011-2.274-2.29L426.5,291.3l-1.11-1.672-5.317,3.562L417.8,290.9l9.877-3.309,3.126,3.141Z" fill="#fff"/>
            </g>
          </g>
          <g id="Group_22" data-name="Group 22">
            <g id="Group_21" data-name="Group 21">
              <path id="Path_24" data-name="Path 24" d="M450.219,303.562l-9.7-2.785a6.3,6.3,0,0,0-3.668.07,25.537,25.537,0,0,0,2.094-10.087,9.512,9.512,0,0,0-.112-1.459l-1.977.312a7.336,7.336,0,0,1,.089,1.147,23.48,23.48,0,0,1-2.445,10.408l-1.45,2.914a1.012,1.012,0,0,0-.1.339l-1.718,15.539a1.845,1.845,0,0,1-3.661.071L425.38,305.35a4.482,4.482,0,0,0-8.87,0l-2.191,14.681a1.845,1.845,0,0,1-3.661-.071l-1.719-15.543a1.023,1.023,0,0,0-.1-.338l-1.45-2.915a23.487,23.487,0,0,1-2.444-10.4,7.3,7.3,0,0,1,10.172-6.743,14.786,14.786,0,0,0,11.656,0l-.787-1.847a12.8,12.8,0,0,1-10.082,0,9.284,9.284,0,0,0-12.209,4.915,9.4,9.4,0,0,0-.75,3.675,25.521,25.521,0,0,0,2.1,10.087,6.3,6.3,0,0,0-3.669-.07l-9.7,2.785a1,1,0,0,0-.731.965v22.108a1,1,0,0,0,1,1.005h58a1,1,0,0,0,1-1.005V304.527A1,1,0,0,0,450.219,303.562Zm-1.274,22.068h-56V305.285l8.975-2.577a4.375,4.375,0,0,1,5.054,2.145l1.7,15.329a3.845,3.845,0,0,0,7.628.148l2.191-14.682a2.481,2.481,0,0,1,4.912,0L425.6,320.33a3.845,3.845,0,0,0,7.628-.148l1.7-15.329a4.376,4.376,0,0,1,5.054-2.145l8.967,2.577Z" fill="#fff"/>
            </g>
          </g>
          <g id="Group_24" data-name="Group 24">
            <g id="Group_23" data-name="Group 23">
              <path id="Path_25" data-name="Path 25" d="M442.252,297.091a29.484,29.484,0,0,0,.693-6.331,13.254,13.254,0,0,0-1.3-5.757l-1.8.868a11.264,11.264,0,0,1,1.1,4.889,27.5,27.5,0,0,1-.858,6.793,1.006,1.006,0,0,0,.723,1.221l9.42,2.7.549-1.932Z" fill="#fff"/>
            </g>
          </g>
          <g id="Group_26" data-name="Group 26">
            <g id="Group_25" data-name="Group 25">
              <path id="Path_26" data-name="Path 26" d="M424.408,278.474a8.79,8.79,0,0,1-6.93,0,13.276,13.276,0,0,0-17.46,7.029,13.41,13.41,0,0,0-1.073,5.257,29.487,29.487,0,0,0,.693,6.337l-8.527,2.445.549,1.932,9.161-2.63.259-.07a1.007,1.007,0,0,0,.724-1.221v0a27.47,27.47,0,0,1-.858-6.79,11.337,11.337,0,0,1,11.3-11.355,11.178,11.178,0,0,1,4.451.919,10.8,10.8,0,0,0,8.5,0,11.277,11.277,0,0,1,5.643-.856l.208-2A13.333,13.333,0,0,0,424.408,278.474Z" fill="#fff"/>
            </g>
          </g>
          <g id="Group_28" data-name="Group 28">
            <g id="Group_27" data-name="Group 27">
              <path id="Path_27" data-name="Path 27" d="M403.928,276.222a1,1,0,0,0-.819-.823,3.878,3.878,0,0,1-3.178-3.194,1,1,0,0,0-1.972,0,3.878,3.878,0,0,1-3.178,3.194,1.006,1.006,0,0,0,0,1.982,3.878,3.878,0,0,1,3.178,3.195,1,1,0,0,0,1.972,0,3.878,3.878,0,0,1,3.178-3.195A1,1,0,0,0,403.928,276.222Zm-4.983,1.6a5.881,5.881,0,0,0-1.428-1.435,5.882,5.882,0,0,0,1.428-1.435,5.881,5.881,0,0,0,1.428,1.435A5.88,5.88,0,0,0,398.945,277.825Z" fill="#fff"/>
            </g>
          </g>
        </g>
      </g>
      <g id="Box_service_3" data-name="Box service 3" transform="translate(1215 2048)">
        <rect id="box_background-4" data-name="box background" width="450" height="436" rx="10" fill="#fff"/>
        <text id="Removal_of_tartar" data-name="Removal of tartar" transform="translate(225 260)" fill="#363636" font-size="22" font-family="RobotoSlab-Regular, Roboto Slab"><tspan x="-90.363" y="0">Removal of tartar</tspan></text>
        <text id="Tartar_is_the_enemy_of_every_human_being_because_through_his_presence_we_have_unpleasant_breath." data-name="Tartar is the enemy of every human being, because through his presence we have unpleasant breath." transform="translate(50 286)" fill="#626262" font-size="18" font-family="Roboto-Regular, Roboto"><tspan x="8.5" y="19">Tartar is the enemy of every human being, </tspan><tspan x="20.167" y="47">because through his presence we have </tspan><tspan x="100.482" y="75">unpleasant breath.</tspan></text>
        <circle id="icon_background-4" data-name="icon background" cx="60" cy="60" r="60" transform="translate(165 70)" fill="#25e6c8"/>
        <g id="Group_16" data-name="Group 16" transform="translate(-195.945 -167.64)">
          <g id="Group_9" data-name="Group 9">
            <g id="Group_8" data-name="Group 8">
              <path id="Path_18" data-name="Path 18" d="M413.573,295.24l-3.117,1.248a2.075,2.075,0,0,1-2.626-2.848l.687-1.374a2,2,0,0,0-.375-2.31l-4.783-4.782,1.293-1.293a1,1,0,0,0,0-1.414l-3.293-3.293.293-.293a1,1,0,0,0,.02-1.394l-9-9.533a1,1,0,0,0-1.727.686v13a1,1,0,0,0,.355.764l3,2.536a1,1,0,0,0,1.352-.057l.293-.3,3.293,3.293a1,1,0,0,0,1.414,0l1.293-1.293,4.783,4.783-.683,1.37a4.071,4.071,0,0,0,5.157,5.6l3.119-1.246Zm-18.335-12.771-.35.35-1.943-1.643v-10.02l6.606,7-.313.313Zm4.707,3.29-2.586-2.586,2.586-2.586,2.586,2.589Z" fill="#fff"/>
            </g>
          </g>
          <g id="Group_11" data-name="Group 11">
            <g id="Group_10" data-name="Group 10">
              <path id="Path_19" data-name="Path 19" d="M450.328,296.716a1,1,0,0,0-1.09.217l-14,14a1,1,0,0,0,0,1.414l.793.793-3.924,3.924a9.66,9.66,0,0,0-5.162-1.424c-4.411,0-8,2.69-8,6s3.589,6,8,6,8-2.691,8-6a4.966,4.966,0,0,0-1.308-3.277l3.808-3.808.793.793a1,1,0,0,0,1.414,0l11-11a1,1,0,0,0,.293-.708v-6A1,1,0,0,0,450.328,296.716Zm-23.383,28.923c-3.252,0-6-1.831-6-4s2.748-4,6-4,6,1.832,6,4S430.2,325.639,426.945,325.639Zm22-22.413-10,10-1.586-1.586,11.586-11.586Z" fill="#fff"/>
            </g>
          </g>
          <g id="Group_13" data-name="Group 13">
            <g id="Group_12" data-name="Group 12">
              <path id="Path_20" data-name="Path 20" d="M425.424,301.434a4.541,4.541,0,0,0-8.958,0l-3.021,18.126a2.489,2.489,0,0,1-4.921-.072L405.936,300.5a1,1,0,0,0-.143-.4l-.556-.891a28.153,28.153,0,0,1-3.61-8.8l-1.953.436a30.165,30.165,0,0,0,3.871,9.43l.442.708,2.56,18.769a4.488,4.488,0,0,0,8.874.133l3.021-18.126a2.539,2.539,0,0,1,5.01,0l2.007,12.041,1.972-.33Z" fill="#fff"/>
            </g>
          </g>
          <g id="Group_15" data-name="Group 15">
            <g id="Group_14" data-name="Group 14">
              <path id="Path_21" data-name="Path 21" d="M430.329,271.64a12.614,12.614,0,0,0-4.969,1.02,11.262,11.262,0,0,1-8.83,0,12.614,12.614,0,0,0-14.327,3.134l1.484,1.346a10.614,10.614,0,0,1,12.055-2.643,13.259,13.259,0,0,0,10.406,0,10.617,10.617,0,0,1,14.8,9.759,28.2,28.2,0,0,1-4.292,14.963l-.556.891a.972.972,0,0,0-.142.4l-.819,6,1.981.271.79-5.787.442-.708a30.2,30.2,0,0,0,4.6-16.029A12.616,12.616,0,0,0,430.329,271.64Z" fill="#fff"/>
            </g>
          </g>
        </g>
      </g>
      <g id="Box_service_2" data-name="Box service 2" transform="translate(735 2048)">
        <rect id="box_background-5" data-name="box background" width="450" height="436" rx="10" fill="#fff"/>
        <text id="Tooth_removal" data-name="Tooth removal" transform="translate(225 260)" fill="#363636" font-size="22" font-family="RobotoSlab-Regular, Roboto Slab"><tspan x="-74.943" y="0">Tooth removal</tspan></text>
        <text id="Any_broken_tooth_is_a_threat_to_the_body_so_this_danger_should_be_removed_from_the_mouth." data-name="Any broken tooth is a threat to the body,
so this danger should be removed
from the mouth." transform="translate(50 286)" fill="#626262" font-size="18" font-family="Roboto-Regular, Roboto"><tspan x="16.432" y="19">Any broken tooth is a threat to the body,</tspan><tspan x="39.824" y="47">so this danger should be removed</tspan><tspan x="110.528" y="75">from the mouth.</tspan></text>
        <circle id="icon_background-5" data-name="icon background" cx="60" cy="60" r="60" transform="translate(165 70)" fill="#2baaec"/>
        <g id="Group_3" data-name="Group 3" transform="translate(-195.946 -167.64)">
          <g id="Group_4" data-name="Group 4">
            <g id="Group_3-2" data-name="Group 3">
              <path id="Path_16" data-name="Path 16" d="M450.218,301.016l-10.652-3a5.22,5.22,0,0,0-3.267.153l.6-1.379,2.111-2.2a25.085,25.085,0,0,0,5.834-9.922,9.236,9.236,0,0,0-6.172-11.547,9.343,9.343,0,0,0-3.713-.351,12.918,12.918,0,0,1-9.638-2.937,9.339,9.339,0,0,0-13.107,1.093,9.208,9.208,0,0,0-1.787,3.255,25,25,0,0,0-.758,11.469l.507,3-2.163,11.393a5.217,5.217,0,0,0-5.689-2.025l-10.653,3a.994.994,0,0,0-.726.956v24.674a1,1,0,0,0,1,.994h58a1,1,0,0,0,1-.994V301.972A1,1,0,0,0,450.218,301.016Zm-40.93,3.027,2.887-15.2a.973.973,0,0,0,0-.349l-.536-3.181a23.011,23.011,0,0,1,.7-10.557,7.322,7.322,0,0,1,11.691-3.412,14.928,14.928,0,0,0,11.146,3.4,7.29,7.29,0,0,1,8.038,6.442,7.2,7.2,0,0,1-.278,2.9,23.125,23.125,0,0,1-5.371,9.132l-2.235,2.334a.967.967,0,0,0-.2.29l-6.175,14.2a1.852,1.852,0,0,1-2.428.955,1.831,1.831,0,0,1-1.093-1.954l2.184-14.526a4.48,4.48,0,0,0-3.121-4.92,4.369,4.369,0,0,0-1.3-.193,4.519,4.519,0,0,0-4.061,2.53l-6.377,13.248a1.851,1.851,0,0,1-2.463.864A1.832,1.832,0,0,1,409.288,304.043Zm15.318-2.92a10.556,10.556,0,0,1-7.516-.321l3.855-8.016a2.491,2.491,0,0,1,3.309-1.173,2.464,2.464,0,0,1,1.391,2.6v-.005Zm-15.661,6.412a3.817,3.817,0,0,0,5.294-.926,3.922,3.922,0,0,0,.334-.574l1.656-3.449a12.254,12.254,0,0,0,8.052.7l-.822,5.455a3.848,3.848,0,0,0,7.336,2.083l2.151-4.941v12.7a3.182,3.182,0,0,1-6.122,1.157l-2.208-5.448a3.971,3.971,0,0,0-7.341,0l-2.208,5.449a3.182,3.182,0,0,1-6.122-1.158V307.535Zm40,18.117h-56V302.723l9.925-2.8a3.212,3.212,0,0,1,3.738,1.62,3.118,3.118,0,0,1,.337,1.4v15.629a5.183,5.183,0,0,0,9.976,1.9l2.208-5.447a1.966,1.966,0,0,1,3.63,0l2.208,5.447a5.184,5.184,0,0,0,9.978-1.9V302.95a3.1,3.1,0,0,1,.336-1.4,3.214,3.214,0,0,1,3.739-1.62l9.924,2.8Z" fill="#fff"/>
            </g>
          </g>
          <g id="Group_6" data-name="Group 6">
            <g id="Group_5" data-name="Group 5">
              <path id="Path_17" data-name="Path 17" d="M418.755,272.418a7.7,7.7,0,0,0-5.179,5.115l-.41,1.326,1.913.582.409-1.325a5.705,5.705,0,0,1,3.841-3.793Z" fill="#fff"/>
            </g>
          </g>
        </g>
      </g>
      <g id="Box_service_1" data-name="Box service 1" transform="translate(255 2048)">
        <rect id="box_background-6" data-name="box background" width="450" height="436" rx="10" fill="#fff"/>
        <text id="Comprehensive_review_of_the_mouth_and_detection_of_broken_teeth_and_other_threats." data-name="Comprehensive review of the mouth
and detection of broken teeth
and other threats." transform="translate(50 286)" fill="#626262" font-size="18" font-family="Roboto-Regular, Roboto"><tspan x="31.07" y="19">Comprehensive review of the mouth</tspan><tspan x="57.6" y="47">and detection of broken teeth</tspan><tspan x="104.208" y="75">and other threats.</tspan></text>
        <text id="Tooth_inspection" data-name="Tooth inspection" transform="translate(225 260)" fill="#363636" font-size="22" font-family="RobotoSlab-Regular, Roboto Slab"><tspan x="-88.269" y="0">Tooth inspection</tspan></text>
        <circle id="icon_background-6" data-name="icon background" cx="60" cy="60" r="60" transform="translate(165 70)" fill="#25e6c8"/>
        <g id="tooth_icon" data-name="tooth icon" transform="translate(-195.944 -167.64)">
          <path id="Path_10" data-name="Path 10" d="M428.945,271.735a9.982,9.982,0,1,0,10,9.982A9.991,9.991,0,0,0,428.945,271.735Zm0,17.968a7.986,7.986,0,1,1,8-7.986A7.994,7.994,0,0,1,428.945,289.7Z" fill="#fff"/>
          <path id="Path_11" data-name="Path 11" d="M450.652,297.981l-9.486-9.468a14.059,14.059,0,1,0-4.187,4.631l9.259,9.243a1,1,0,0,0,1.414,0l3-2.995A1,1,0,0,0,450.652,297.981ZM428.945,293.7a11.979,11.979,0,1,1,12-11.979A12,12,0,0,1,428.945,293.7Zm18,6.573-8.412-8.4a14.211,14.211,0,0,0,1.505-1.663l8.493,8.477Z" fill="#fff"/>
          <path id="Path_12" data-name="Path 12" d="M432.473,303.555l-.377.6a1.048,1.048,0,0,0-.127.307l-4.354,19.119a2.647,2.647,0,0,1-5.192-.15l-3-17.961a4.542,4.542,0,0,0-8.958,0l-3,17.961a2.647,2.647,0,0,1-5.191.15l-4.355-19.126a1.007,1.007,0,0,0-.127-.307l-.376-.6a29.3,29.3,0,0,1-4.472-15.566,12.28,12.28,0,0,1,17.111-11.263,12.451,12.451,0,0,0,3.44.918l.232-1.983a10.372,10.372,0,0,1-2.883-.77,14.265,14.265,0,0,0-19.9,13.1,31.287,31.287,0,0,0,4.776,16.624l.286.457,4.319,18.966a4.647,4.647,0,0,0,9.113-.266l3-17.962a2.543,2.543,0,0,1,5.015,0l3,17.962a4.648,4.648,0,0,0,9.114.266l4.317-18.966.286-.457a31.373,31.373,0,0,0,3.681-8.414l-1.932-.522A29.326,29.326,0,0,1,432.473,303.555Z" fill="#fff"/>
          <path id="Path_13" data-name="Path 13" d="M395.944,287.706h2c0-5.061,4.03-5.973,4.2-6.01l-.2-.977-.2-.978C399.744,280.141,395.944,282.321,395.944,287.706Z" fill="#fff"/>
          <rect id="Rectangle_7" data-name="Rectangle 7" width="2" height="1.996" transform="translate(403.944 279.721)" fill="#fff"/>
          <path id="Path_14" data-name="Path 14" d="M429.236,276.017l-5.5,5.49,1.413,1.412,5.5-5.49Z" fill="#fff"/>
          <path id="Path_15" data-name="Path 15" d="M433.237,279.016l-7,6.987,1.414,1.412,7-6.987Z" fill="#fff"/>
        </g>
      </g>
      <rect id="line" width="450" height="4" transform="translate(735 1974)" fill="#25e6c8"/>
      <text id="Our_services" data-name="Our services" transform="translate(960 1943)" fill="#363636" font-size="40" font-family="RobotoSlab-Regular, Roboto Slab"><tspan x="-118.359" y="0">Our services</tspan></text>
    </g>
    <g id="ABOUT">
      <path id="placehold-2" data-name="placehold" d="M175,501.209v-1c1.67-.7,4.3-.98,4.844-2.192,2.137-4.728,6.551-4.111,10.241-4.943,4.786-1.078,9.686-1.646,15.467-2.586-3.449-6.279-6.326-11.845-9.508-17.233-4.622-7.83-4.466-12.04,1.086-18.989a11.435,11.435,0,0,0,1.559-2.521c8.164-18.775,16.894-37.332,24.262-56.415,6.278-16.263,10.859-33.176,16.457-49.711,1.75-5.167,5.082-9.854,6.449-15.086,4.108-15.726,6.99-31.792,11.535-47.379,3.614-12.4,6.409-26.063,21.333-31,.587-.195,1.017-.843,1.544-1.247,7.4-5.669,14.783-11.366,22.222-16.987,10.584-8,21.573-15.509,31.714-24.03,9.483-7.97,18.511-16.293,30.963-19.426,1.181-.3,2.133-1.459,3.223-2.172,7.262-4.749,8.685-13.111,12.391-20.051,3.422-6.406-.038-19.967-6.068-23.941-6.268-4.133-11.216-9.444-13.379-16.689a119.8,119.8,0,0,1-3.38-16.353c-3.376-22.3-6.6-44.629-9.857-66.949-.24-1.645-.271-3.318-.433-4.975a171.645,171.645,0,0,1,2.816-50.086c2.311-11.714,6.941-22.856,16.771-31.02,8.793-7.3,17.9-13.883,29.275-16.347,13.362-2.9,26.892-5.807,40.5-2.42,8.491,2.111,16.6,5.735,24.927,8.528,8.647,2.9,16.455,6.99,22.432,14.146,1.469,1.759,3.6,2.947,5.285,4.547,4.162,3.95,8.139,8.1,12.388,11.954,3.885,3.526,2.894,8.587,4.513,12.8,4.022,10.468,4.16,21.094,1.635,31.873-.892,3.805-2.271,7.556-2.651,11.408-.454,4.584,3.8,8.549.84,14.01-2.211,4.082-1.427,9.68-2.622,14.442C501.012,74.188,498.406,85.3,494.683,96c-2.773,7.974-3.9,16.5-8.592,23.91-5.015,7.907.313,17.943,9.586,19.326a90.266,90.266,0,0,1,11.711,2.461c17.182,4.956,26.61,17.2,25.5,33.532-.254,3.733.922,5.744,3.8,7.758q22.308,15.6,44.4,31.51c24.032,17.344,38.793,41.887,52.1,67.535,1.885,3.632,4.651,6.953,5.828,10.781,6.17,20.055,8.238,40.783,8.642,61.634.406,20.982.481,41.985.006,62.963-.911,40.283-2.319,80.556-3.486,120.833-.033,1.13.471,2.268.511,3.409.108,3.1.5,6.257.061,9.287-1.118,7.733-2.746,15.389-3.951,23.11-2.105,13.485-7.776,24.823-19.839,31.941-10.888,6.425-21.714,13.18-33.268,18.167-7.6,3.279-9.69,8.275-9.846,15.285-.163,7.393-.036,14.792-.036,22.28H243.366a36.8,36.8,0,0,1,.026-4.663q2.717-20.039,5.555-40.061c.777-5.46-.47-7.292-5.565-9.33a24.392,24.392,0,0,1-7.362-4.623c-2.26-2.094-3.943-3.262-7.324-1.964-6.764,2.595-13.7-.558-14.855-7.5a199.4,199.4,0,0,1-2.3-29.21c-.051-3-.963-5.1-1.841-7.708-3.187-9.461-14.334-15.538-11.684-27.43.083-.372-.318-.933-.623-1.3Q186.212,514.56,175,501.209Z" transform="translate(920 1089.061)" fill="#dedede" fill-rule="evenodd"/>
      <g id="Numbers">
        <text id="Open_clinic" data-name="Open clinic" transform="translate(735 1596)" fill="#363636" font-size="18" font-family="RobotoSlab-Regular, Roboto Slab"><tspan x="0" y="0">Open clinic</tspan></text>
        <text id="_24_7" data-name="24/7" transform="translate(735 1561)" fill="#2baaec" font-size="40" font-family="RobotoSlab-Regular, Roboto Slab"><tspan x="0" y="0">24/7</tspan></text>
        <text id="Performed_treatments" data-name="Performed treatments" transform="translate(495 1596)" fill="#363636" font-size="18" font-family="RobotoSlab-Regular, Roboto Slab"><tspan x="0" y="0">Performed treatments</tspan></text>
        <text id="_12_890" data-name="12 890" transform="translate(495 1561)" fill="#2baaec" font-size="40" font-family="RobotoSlab-Regular, Roboto Slab"><tspan x="0" y="0">12 890</tspan></text>
        <text id="Happy_patients" data-name="Happy patients" transform="translate(255 1596)" fill="#363636" font-size="18" font-family="RobotoSlab-Regular, Roboto Slab"><tspan x="0" y="0">Happy patients</tspan></text>
        <text id="_9_850" data-name="9 850" transform="translate(255 1561)" fill="#2baaec" font-size="40" font-family="RobotoSlab-Regular, Roboto Slab"><tspan x="0" y="0">9 850</tspan></text>
      </g>
      <text id="The_DentialClinic_Center_located_in_the_city_of_Stockholm_is_one_of_the_most_modern_dentistry_centers_in_Sweden._It_was_created_for_demanding_patients_who_expect_the_highest_quality_of_services_combined_with_comfort_and_a_pleasant_atmosphere._The_highest-" data-name="The DentialClinic Center located in the city of Stockholm is one of the most modern dentistry centers in Sweden. It was created for demanding patients who expect the highest quality of services combined with comfort and a pleasant atmosphere.

The highest-" transform="translate(255 1267)" fill="#626262" font-size="18" font-family="Roboto-Regular, Roboto"><tspan x="0" y="19">The DentialClinic Center located in the city of Stockholm is one of the most modern </tspan><tspan x="0" y="47">dentistry centers in Sweden. It was created for demanding patients who expect the </tspan><tspan x="0" y="75">highest quality of services combined with comfort and a pleasant atmosphere.</tspan><tspan x="0" y="103"></tspan><tspan x="0" y="131">The highest-class dental equipment possessed by the DentialClinic Center enables </tspan><tspan x="0" y="159">complicated procedures to be carried out. In our dental practice we combine passion, </tspan><tspan x="0" y="187">technology and quality. We strive to fulfill your dreams of a wonderful smile.</tspan></text>
      <rect id="line-2" data-name="line" width="705" height="4" transform="translate(255 1213)" fill="#25e6c8"/>
      <text id="DentialClinic_is_a_modern_medical_and_dental_clinic" data-name="DentialClinic is a modern
medical and dental clinic" transform="translate(255 1090)" fill="#363636" font-size="40" font-family="RobotoSlab-Regular, Roboto Slab"><tspan x="0" y="42">Dential</tspan><tspan y="42" fill="#2baaec">Clinic</tspan><tspan y="42" xml:space="preserve"> is a modern</tspan><tspan x="0" y="92">medical and dental clinic</tspan></text>
    </g>
    <g id="SLIDER">
      <rect id="placehold-3" data-name="placehold" width="1920" height="700" transform="translate(0 240)" fill="#dedede"/>
      <g id="Title">
        <text id="Modern_technologies_ensure_safety" data-name="Modern technologies
ensure safety" transform="translate(975 420)" fill="#363636" font-size="60" font-family="RobotoSlab-Regular, Roboto Slab"><tspan x="0" y="63">Modern technologies</tspan><tspan x="0" y="133">ensure safety</tspan></text>
        <text id="Our_clinic_is_equipped_with_the_highest_quality_medical_and_dental_equipment_which_allows_for_quick_and_effective_treatment_of_the_patient." data-name="Our clinic is equipped with the highest quality medical and dental equipment,
which allows for quick and effective treatment of the patient." transform="translate(975 609)" fill="#626262" font-size="18" font-family="Roboto-Regular, Roboto"><tspan x="0" y="19">Our clinic is equipped with the highest quality medical and dental equipment,</tspan><tspan x="0" y="47">which allows for quick and effective treatment of the patient.</tspan></text>
        <g id="Button-2" data-name="Button" transform="translate(975 701)">
          <rect id="btn-2" data-name="btn" width="239" height="60" rx="10" fill="#25e6c8"/>
          <text id="About_our_clinic" data-name="About our clinic" transform="translate(56 37)" fill="#fff" font-size="18" font-family="Roboto-Bold, Roboto" font-weight="700"><tspan x="0" y="0">About our clinic</tspan></text>
        </g>
      </g>
      <path id="placehold-4" data-name="placehold" d="M-443.944,679.457c4.233-10.445,8.308-20.5,12.893-31.812-11.175,2.738-20.882,4.818-30.415,7.51-23.8,6.718-48.239,9.95-72.629,13.213a90.161,90.161,0,0,1-39.578-3.276c-6.456-2.076-12.158-6.572-18.083-10.166a7.978,7.978,0,0,1-2.655-3.525,143.424,143.424,0,0,1-12.529-50.449,21.673,21.673,0,0,0-.131-2.994c-5.211-25.337,4.967-47.969,13.511-70.46,20.593-54.218,39.287-109.212,64.071-161.771,7.25-15.375,18.361-28.025,29.052-41.016,12.08-14.679,27.448-24.885,43.451-34.622,12.237-7.445,19.436-19.042,23.692-32.74,2.175-7,5.712-13.572,8.6-20.356.162-.378-.031-.909-.094-1.974-1.487,1.142-2.612,2-3.573,2.744,7.737-13.75,14.53-28.223,23.629-41.062,5.163-7.284,6.233-13.422,3.948-21.262a31.561,31.561,0,0,1-1.034-8.392c-.063-5.775-1.867-9.907-7.512-12.779-7.481-3.808-9.472-11.7-11.418-19.114-2.616-9.966-2-19.51,3.152-28.946,2.627-4.81,3.144-10.771,4.626-16.209,3.23-11.849,5.808-23.928,9.866-35.486,5.027-14.323,15.327-25.092,26.448-35.122,8.977-8.1,19.125-14.035,30.84-16.668,13.889-3.123,27.94-4.282,41.831.473,1.1.377,2.3,1,3.364.859,19.126-2.476,30.936,9.609,42.054,21.923,14.3,15.843,19.944,35.4,20.958,56.367.28,5.791-.311,11.624-.5,17.438-.387,12-2.131,24.153-.836,35.972,1.921,17.533-.7,33.186-9.166,48.893-10.061,18.666-23.128,34.426-38.525,48.631-4.792,4.421-9.785,8.024-16.748,7.778l-.775,1.173c1.993,1.866,3.673,4.6,6.032,5.45,10.806,3.907,16.369,12.682,21.333,22.027,1.32,2.485,2.7,3.336,5.535,3.774,4.717.728,9.318,2.419,13.86,4.01,6.834,2.395,13.6,2.829,20.516.42a6.222,6.222,0,0,1,3.326-.062c3.88.93,7.731,1.992,11.575,3.067,11.874,3.326,19.825,10.536,23.928,22.463,2.129,6.185,5.553,12.028,9.052,17.612,4.02,6.416,7.756,12.754,8.463,20.52.149,1.64,1.352,3.292,2.367,4.728,7.583,10.721,14.361,22.177,23.08,31.889,13.649,15.2,20.832,34.215,32.223,50.668a74.331,74.331,0,0,0,5.142,5.938c4.4-8.65,9.236-16.318,12.175-24.656,1.716-4.864.052-10.83.513-16.248,1-11.766,6.084-22.292,10.329-33.106,1.229-3.128.4-7.14.218-10.731-.424-8.414-.9-16.831-1.642-25.221-.191-2.168-1.441-4.242-2.273-6.552,3.8-5.557,4.547-11.084,1.7-18.319-6.724-17.061-9.146-35.2-2.807-52.729,4.615-12.766,15.2-20.511,29.2-21.858,6.259-.6,12.641.154,18.967.1,3.1-.024,6.195-.481,9.757-.781-.006-.106.052.866.086,1.426l19.81,8.574c.142-.481.393-1.5.738-2.483,1.617-4.623,6.064-5.605,9.364-2.136,2.969,3.119,6.312,5.933,8.935,9.311A40.486,40.486,0,0,1,2.56,248.78c1.314,3.206,1.863,6.719,2.884,10.055,1.461,4.768,3.619,9.527-1.267,13.75,4.857,4.635,4.377,9.468,1.8,14.443q-3.555,6.855-7.237,13.644c-4.364,8.078-6.309,16.762-7.164,25.853-.24,2.556-1.919,5.191-3.513,7.37-5.171,7.069-10.775,13.825-15.9,20.925-5.232,7.251-10.1,14.767-15.478,22.688,4.324,2.514,9.107,6.281,14.543,8.252,11.331,4.109,13.961,13.29,14.884,23.474.3,3.285-1,6.841-2.088,10.1-3.168,9.447-6.367,18.9-10.053,28.147-1.317,3.3-4.439,5.849-6.062,9.078-2.2,4.374-4.942,8.967-5.353,13.65-1.437,16.327-7.759,31.252-12.279,46.684-3.119,10.654-6.488,21.261-10.338,31.669-5.588,15.11-17.41,25.783-27.77,37.458a2.1,2.1,0,0,1-.793.6c-12.205,4.437-24.593,9.134-37.6,4.17-13.67-5.215-27.528-10.377-40.276-17.422-8.312-4.594-14.806-12.49-22.074-18.952a37.215,37.215,0,0,1-3.032-3.6,50.522,50.522,0,0,0-2.261,4.743c-1.6,4.615-3.894,9.188-4.372,13.934a22.68,22.68,0,0,0,2.412,11.91,208.016,208.016,0,0,1,19.7,60.454A8.219,8.219,0,0,0-174,646.037c9.288,9.306,12.866,21.787,19.679,33.42Z" transform="translate(817.113 261)" fill="#bfbfbf" fill-rule="evenodd"/>
    </g>
    <g id="TOP">
      <g id="Navigation">
        <text id="Contact" transform="translate(1599 157)" fill="#363636" font-size="18" font-family="RobotoSlab-Regular, Roboto Slab"><tspan x="0" y="0">Contact</tspan></text>
        <text id="Services-2" data-name="Services" transform="translate(1493 157)" fill="#363636" font-size="18" font-family="RobotoSlab-Regular, Roboto Slab"><tspan x="0" y="0">Services</tspan></text>
        <text id="About_Us" data-name="About Us" transform="translate(1377 157)" fill="#363636" font-size="18" font-family="RobotoSlab-Regular, Roboto Slab"><tspan x="0" y="0">About Us</tspan></text>
        <text id="Home-2" data-name="Home" transform="translate(1287 157)" fill="#363636" font-size="18" font-family="RobotoSlab-Regular, Roboto Slab"><tspan x="0" y="0">Home</tspan></text>
      </g>
      <g id="Logo">
        <g id="Group_2" data-name="Group 2" transform="translate(-152.246 -59.452)">
          <path id="Path_8" data-name="Path 8" d="M479.892,189.247a23.765,23.765,0,0,0-31.4-18.428,4.448,4.448,0,0,1,1.771-.134c.286.024.58.062.873.106l.05.009c.27.042.538.09.8.14l.117.022c.278.054.541.108.787.158.157.031.3.059.437.085l.192.038a25.968,25.968,0,0,1,9.313,3.487q.6.381,1.186.8a22.224,22.224,0,0,1,8.759,18.675c-.158,5.213-2.366,9.891-4.947,14.316-2.832,4.857-4.906,8.606-5.029,14.4-.064,2.957.218,5.955-.27,8.889-.315,1.9-1.24,4.963-2.773,6.255a1.489,1.489,0,0,1-1.817.169,1.969,1.969,0,0,1-.512-.746c-1.577-3.422-.967-7.341-2.074-10.886q-.153-.491-.333-.956c-.043-.11-.09-.215-.135-.324-.08-.2-.16-.39-.247-.578-.061-.129-.125-.253-.188-.379-.079-.157-.158-.315-.243-.468-.074-.134-.151-.265-.23-.4s-.161-.267-.246-.4-.178-.268-.271-.4c-.08-.113-.161-.225-.245-.334-.1-.136-.209-.27-.319-.4-.076-.092-.155-.181-.234-.269-.122-.139-.245-.275-.374-.4-.065-.067-.133-.13-.2-.194-.149-.144-.3-.286-.454-.421-.031-.027-.064-.051-.1-.077a11.038,11.038,0,0,0-4.4-2.247l-.018-.005c-.281-.072-.567-.134-.859-.188l-.019,0a14.394,14.394,0,0,0-2.608-.238,7.654,7.654,0,0,1,7.654,7.655v19.643a4.134,4.134,0,0,0,7.216,2.756l2.682-3a26.453,26.453,0,0,0,6.737-17.636A28.593,28.593,0,0,1,474.51,208.7,23.78,23.78,0,0,0,479.892,189.247Z" fill="#2baaec"/>
          <path id="Path_9" data-name="Path 9" d="M429.467,239.531a8.185,8.185,0,0,1-.749-1.092c-1.5-2.617-1.362-5.7-1.634-8.688a77.892,77.892,0,0,0-3.079-16.281c-3.324-10.578-9.042-23.054.688-32.188,7.8-7.32,18.983-3.738,28.307-2.64,2.382.279,5.474.632,7.8.9-3.787-1.327-8.016-3.131-12.357-5.169-6.749-3.169-14.42-5.881-21.958-4.527-17.4,3.127-25.207,24.869-14.051,38.469a30.031,30.031,0,0,1,6.909,19.03,26.454,26.454,0,0,0,6.736,17.636l2.684,3a4.133,4.133,0,0,0,7.214-2.756V225.58a7.62,7.62,0,0,1,1.439-4.457C432.135,224.247,433.992,245.1,429.467,239.531Z" fill="#2baaec"/>
        </g>
        <text id="DentialClinic" transform="translate(345 148)" fill="#363636" font-size="24" font-family="RobotoSlab-Regular, Roboto Slab"><tspan x="0" y="0">Dential</tspan><tspan y="0" fill="#2baaec">Clinic</tspan></text>
        <text id="Stomatology_Health" data-name="Stomatology Health" transform="translate(345 172)" fill="#626262" font-size="16" font-family="Roboto-Regular, Roboto"><tspan x="0" y="0">Stomatology Health</tspan></text>
      </g>
      <g id="Top_bar" data-name="Top bar">
        <g id="background-3" data-name="background" transform="translate(-1)" fill="#fff" stroke="#707070" stroke-width="1" opacity="0.6">
          <rect width="1920" height="60" stroke="none"/>
          <rect x="0.5" y="0.5" width="1919" height="59" fill="none"/>
        </g>
        <g id="social_media_icons" data-name="social media icons">
          <path id="instagram_icon" data-name="instagram icon" d="M392.935,108.634a3.878,3.878,0,0,1-4.065,4.066c-1.157.066-4.622.066-5.779,0a3.878,3.878,0,0,1-4.065-4.066c-.066-1.156-.066-4.621,0-5.778a3.873,3.873,0,0,1,4.065-4.062c1.157-.066,4.622-.066,5.779,0a3.878,3.878,0,0,1,4.065,4.065C393,104.016,393,107.478,392.935,108.634Zm-1.212-2.887a15.418,15.418,0,0,0-.282-4.128,2.355,2.355,0,0,0-1.331-1.331,30.354,30.354,0,0,0-8.256,0,2.358,2.358,0,0,0-1.331,1.331,15.533,15.533,0,0,0-.281,4.128,15.418,15.418,0,0,0,.281,4.128,2.361,2.361,0,0,0,1.331,1.331,30.462,30.462,0,0,0,8.256,0,2.361,2.361,0,0,0,1.331-1.331A15.409,15.409,0,0,0,391.723,105.747Zm-2.15,0a3.59,3.59,0,1,1-3.591-3.591A3.585,3.585,0,0,1,389.573,105.747Zm-1.257,0a2.334,2.334,0,1,0-2.334,2.334A2.336,2.336,0,0,0,388.316,105.747Zm1.4-2.9a.838.838,0,1,1,.837-.838A.836.836,0,0,1,389.72,102.847Z" transform="translate(1272.016 -75.744)" fill="#2baaec"/>
          <path id="google_plus_icon" data-name="google plus icon" d="M346.142,105.889a5.535,5.535,0,0,1-5.763,5.861,6,6,0,0,1,0-12,5.73,5.73,0,0,1,4.019,1.572l-1.629,1.563a3.368,3.368,0,0,0-2.39-.925,3.791,3.791,0,0,0,0,7.58,3.249,3.249,0,0,0,3.4-2.587h-3.4v-2.062h5.664A5.018,5.018,0,0,1,346.142,105.889Zm7.437-.8v1.75h-1.742v1.741h-1.75v-1.741h-1.741v-1.75h1.741V103.35h1.75v1.742Z" transform="translate(1271.613 -75.75)" fill="#2baaec"/>
          <path id="twitter_icon" data-name="twitter icon" d="M307.375,102.917a9.333,9.333,0,0,1-14.365,7.858,6.666,6.666,0,0,0,.792.041,6.569,6.569,0,0,0,4.071-1.4,3.286,3.286,0,0,1-3.066-2.274,4.192,4.192,0,0,0,.619.05,3.48,3.48,0,0,0,.864-.111,3.28,3.28,0,0,1-2.63-3.218v-.041a3.3,3.3,0,0,0,1.482.416,3.282,3.282,0,0,1-1.015-4.385,9.321,9.321,0,0,0,6.761,3.431,3.675,3.675,0,0,1-.081-.751,3.282,3.282,0,0,1,5.675-2.244,6.44,6.44,0,0,0,2.081-.792,3.261,3.261,0,0,1-1.441,1.807,6.6,6.6,0,0,0,1.888-.507,7.076,7.076,0,0,1-1.644,1.695C307.375,102.633,307.375,102.775,307.375,102.917Z" transform="translate(1271.982 -75.252)" fill="#25e6c8"/>
          <path id="facebook_icon" data-name="facebook icon" d="M265.1,101.791v1.959h2.665l-.366,2.844h-2.3v7.156h-2.938v-7.156h-2.4V103.75h2.4v-2.241a3.427,3.427,0,0,1,3.659-3.759,20.266,20.266,0,0,1,2.194.112v2.544H266.5C265.323,100.406,265.1,100.969,265.1,101.791Z" transform="translate(1271.232 -75.75)" fill="#2baaec"/>
        </g>
        <text id="Working_hours:_Monday_Friday:_9:00_18:00" data-name="Working hours: Monday – Friday: 9:00 – 18:00" transform="translate(285 37)" fill="#626262" font-size="16" font-family="Roboto-Regular, Roboto"><tspan x="0" y="0">Working hours: Monday – Friday: 9:00 – 18:00</tspan></text>
        <path id="clock_icon" data-name="clock icon" d="M-90-101a9.995,9.995,0,0,1,9.99-10A10.005,10.005,0,0,1-70-101,10.006,10.006,0,0,1-80.01-91,10,10,0,0,1-90-101Zm2,0a8,8,0,0,0,8,8,8,8,0,0,0,8-8,8,8,0,0,0-8-8A8,8,0,0,0-88-101Zm7,1v-6h1.5v5.251L-75-98.08l-.751,1.23Z" transform="translate(345 131)" fill="#2baaec"/>
      </g>
    </g>
  </g>
</svg>
